<?xml version="1.0" encoding="UTF-8"?>
<svg xmlns="http://www.w3.org/2000/svg" viewBox="0 0 1809.65 512">
  <defs>
    <style>
      .cls-1 {
        fill: #1447e6;
      }

      .cls-2 {
        fill: #2b7fff;
      }

      .cls-3 {
        fill: #f0f5f9;
      }
    </style>
  </defs>
  <g id="Background">
    <circle class="cls-3" cx="256" cy="256" r="256"/>
  </g>
  <g id="P">
    <g>
      <path class="cls-2" d="M340.14,233.04c5.06,0,9.99.2,14.76.6,1.31-7.51,1.99-15.4,1.99-23.64,0-74.4-55.19-120-135.42-120h-118.28v239.99h118.28c1.04,0,2.08-.01,3.12-.03v-96.93h115.54Z"/>
      <path class="cls-2" d="M354.91,233.64c-10.39,59.42-60.59,95.29-130.31,96.33v143.07h80.91v-58.96h34.63c66.85,0,109.36-34.98,109.36-90.53,0-51.32-36.32-85.08-94.6-89.9Z"/>
    </g>
    <path class="cls-1" d="M224.6,329.97c69.72-1.04,119.92-36.91,130.31-96.33-4.78-.4-9.7-.6-14.76-.6h-115.54v96.93Z"/>
    <g>
      <path class="cls-2" d="M622.11,62.23h70.1c50.48,0,85.09,30.42,85.09,77.16s-34.61,77.16-85.09,77.16h-70.1V62.23ZM690.45,187.22c30.64,0,50.7-18.3,50.7-47.84s-20.06-47.84-50.7-47.84h-32.63v95.67h32.63Z"/>
      <path class="cls-2" d="M903.62,183.47h-71.64l-13.67,33.07h-36.59l68.78-154.31h35.27l69,154.31h-37.48l-13.67-33.07ZM892.38,156.36l-24.47-59.08-24.47,59.08h48.94Z"/>
      <path class="cls-2" d="M1110.84,62.23l-66.79,154.31h-35.27l-66.57-154.31h38.58l46.95,110.22,47.62-110.22h35.49Z"/>
      <path class="cls-2" d="M1165.29,30.92h30.64l-72.75,207.66h-30.64l72.75-207.66Z"/>
      <path class="cls-2" d="M1204.53,62.23h70.1c50.48,0,85.09,30.42,85.09,77.16s-34.61,77.16-85.09,77.16h-70.1V62.23ZM1272.87,187.22c30.64,0,50.7-18.3,50.7-47.84s-20.06-47.84-50.7-47.84h-32.63v95.67h32.63Z"/>
      <path class="cls-2" d="M1506.1,187.88v28.66h-119.48V62.23h116.61v28.66h-81.12v33.51h71.64v27.78h-71.64v35.71h83.99Z"/>
      <path class="cls-2" d="M1680.69,62.23l-66.79,154.31h-35.27l-66.57-154.31h38.58l46.95,110.22,47.62-110.22h35.49Z"/>
      <path class="cls-2" d="M1681.36,201.33l12.12-26.89c13.01,9.48,32.41,16.09,50.92,16.09,21.16,0,29.76-7.05,29.76-16.53,0-28.88-89.72-9.04-89.72-66.35,0-26.23,21.16-48.06,65.03-48.06,19.4,0,39.24,4.63,53.57,13.67l-11.02,27.11c-14.33-8.16-29.1-12.12-42.77-12.12-21.16,0-29.32,7.94-29.32,17.64,0,28.44,89.72,8.82,89.72,65.47,0,25.79-21.38,47.84-65.47,47.84-24.47,0-49.16-7.27-62.83-17.86Z"/>
      <path class="cls-2" d="M755.92,382.76c0,34.39-25.79,55.77-67.01,55.77h-31.08v42.55h-35.71v-154.31h66.79c41.22,0,67.01,21.38,67.01,55.99ZM719.77,382.76c0-16.97-11.02-26.89-32.85-26.89h-29.1v53.57h29.1c21.82,0,32.85-9.92,32.85-26.67Z"/>
      <path class="cls-2" d="M875.19,448.01h-71.64l-13.67,33.07h-36.59l68.78-154.31h35.27l69,154.31h-37.48l-13.67-33.07ZM863.94,420.89l-24.47-59.08-24.47,59.08h48.94Z"/>
      <path class="cls-2" d="M1076.23,382.76c0,34.39-25.79,55.77-67.01,55.77h-31.08v42.55h-35.71v-154.31h66.79c41.22,0,67.01,21.38,67.01,55.99ZM1040.08,382.76c0-16.97-11.02-26.89-32.85-26.89h-29.1v53.57h29.1c21.82,0,32.85-9.92,32.85-26.67Z"/>
      <path class="cls-2" d="M1221.06,452.42v28.66h-119.48v-154.31h116.61v28.66h-81.12v33.51h71.64v27.78h-71.64v35.71h83.99Z"/>
      <path class="cls-2" d="M1347.82,481.08l-29.76-42.99h-32.85v42.99h-35.71v-154.31h66.79c41.22,0,67.02,21.38,67.02,55.99,0,23.15-11.68,40.12-31.74,48.72l34.61,49.6h-38.36ZM1314.31,355.86h-29.1v53.79h29.1c21.82,0,32.85-10.14,32.85-26.89s-11.02-26.89-32.85-26.89Z"/>
    </g>
  </g>
</svg>